<?xml version="1.0" encoding="utf-8" standalone="no"?>
<!DOCTYPE svg PUBLIC "-//W3C//DTD SVG 1.1//EN"
  "http://www.w3.org/Graphics/SVG/1.1/DTD/svg11.dtd">
<svg xmlns:xlink="http://www.w3.org/1999/xlink" width="274.226078pt" height="215.102841pt" viewBox="0 0 274.226078 215.102841" xmlns="http://www.w3.org/2000/svg" version="1.1">
 <metadata>
  <rdf:RDF xmlns:dc="http://purl.org/dc/elements/1.1/" xmlns:cc="http://creativecommons.org/ns#" xmlns:rdf="http://www.w3.org/1999/02/22-rdf-syntax-ns#">
   <cc:Work>
    <dc:type rdf:resource="http://purl.org/dc/dcmitype/StillImage"/>
    <dc:date>2026-05-27T06:37:46.884701</dc:date>
    <dc:format>image/svg+xml</dc:format>
    <dc:creator>
     <cc:Agent>
      <dc:title>Matplotlib v3.9.0, https://matplotlib.org/</dc:title>
     </cc:Agent>
    </dc:creator>
   </cc:Work>
  </rdf:RDF>
 </metadata>
 <defs>
  <style type="text/css">*{stroke-linejoin: round; stroke-linecap: butt}</style>
 </defs>
 <g id="figure_1">
  <g id="patch_1">
   <path d="M 0 215.102841 
L 274.226078 215.102841 
L 274.226078 0 
L 0 0 
z
" style="fill: #ffffff"/>
  </g>
  <g id="axes_1">
   <g id="patch_2">
    <path d="M 46.728063 122.05456 
L 262.188063 122.05456 
L 262.188063 22.26256 
L 46.728063 22.26256 
z
" style="fill: #ffffff"/>
   </g>
   <g id="line2d_1">
    <path d="M 46.728063 44.94256 
L 262.188063 44.94256 
" clip-path="url(#pc337ca256a)" style="fill: none; stroke-dasharray: 1.5,1; stroke-dashoffset: 0; stroke: #202020; stroke-width: 0.5"/>
   </g>
   <g id="matplotlib.axis_1">
    <g id="xtick_1">
     <g id="line2d_2">
      <defs>
       <path id="mefa2552c77" d="M 0 0 
L 0 2.2 
" style="stroke: #000000; stroke-width: 0.55"/>
      </defs>
      <g>
       <use xlink:href="#mefa2552c77" x="46.728063" y="122.05456" style="stroke: #000000; stroke-width: 0.55"/>
      </g>
     </g>
     <g id="text_1">
      <text style="font: 5.8px 'Arial', 'Helvetica', 'DejaVu Sans', sans-serif; text-anchor: middle" x="46.728063" y="131.906091" transform="rotate(-0 46.728063 131.906091)">0</text>
     </g>
    </g>
    <g id="xtick_2">
     <g id="line2d_3">
      <g>
       <use xlink:href="#mefa2552c77" x="100.593063" y="122.05456" style="stroke: #000000; stroke-width: 0.55"/>
      </g>
     </g>
     <g id="text_2">
      <text style="font: 5.8px 'Arial', 'Helvetica', 'DejaVu Sans', sans-serif; text-anchor: middle" x="100.593063" y="131.906091" transform="rotate(-0 100.593063 131.906091)">100</text>
     </g>
    </g>
    <g id="xtick_3">
     <g id="line2d_4">
      <g>
       <use xlink:href="#mefa2552c77" x="154.458063" y="122.05456" style="stroke: #000000; stroke-width: 0.55"/>
      </g>
     </g>
     <g id="text_3">
      <text style="font: 5.8px 'Arial', 'Helvetica', 'DejaVu Sans', sans-serif; text-anchor: middle" x="154.458063" y="131.906091" transform="rotate(-0 154.458063 131.906091)">200</text>
     </g>
    </g>
    <g id="xtick_4">
     <g id="line2d_5">
      <g>
       <use xlink:href="#mefa2552c77" x="208.323063" y="122.05456" style="stroke: #000000; stroke-width: 0.55"/>
      </g>
     </g>
     <g id="text_4">
      <text style="font: 5.8px 'Arial', 'Helvetica', 'DejaVu Sans', sans-serif; text-anchor: middle" x="208.323063" y="131.906091" transform="rotate(-0 208.323063 131.906091)">300</text>
     </g>
    </g>
    <g id="xtick_5">
     <g id="line2d_6">
      <g>
       <use xlink:href="#mefa2552c77" x="262.188063" y="122.05456" style="stroke: #000000; stroke-width: 0.55"/>
      </g>
     </g>
     <g id="text_5">
      <text style="font: 5.8px 'Arial', 'Helvetica', 'DejaVu Sans', sans-serif; text-anchor: middle" x="262.188063" y="131.906091" transform="rotate(-0 262.188063 131.906091)">400</text>
     </g>
    </g>
    <g id="text_6">
     <text style="font: 6.6px 'Arial', 'Helvetica', 'DejaVu Sans', sans-serif; text-anchor: middle" x="154.458063" y="139.363435" transform="rotate(-0 154.458063 139.363435)">Time (s)</text>
    </g>
   </g>
   <g id="matplotlib.axis_2">
    <g id="ytick_1">
     <g id="line2d_7">
      <defs>
       <path id="m774c30c5f5" d="M 0 0 
L -2.2 0 
" style="stroke: #000000; stroke-width: 0.55"/>
      </defs>
      <g>
       <use xlink:href="#m774c30c5f5" x="46.728063" y="112.98256" style="stroke: #000000; stroke-width: 0.55"/>
      </g>
     </g>
     <g id="text_7">
      <text style="font: 5.8px 'Arial', 'Helvetica', 'DejaVu Sans', sans-serif; text-anchor: end" x="41.028063" y="115.058326" transform="rotate(-0 41.028063 115.058326)">100</text>
     </g>
    </g>
    <g id="ytick_2">
     <g id="line2d_8">
      <g>
       <use xlink:href="#m774c30c5f5" x="46.728063" y="90.30256" style="stroke: #000000; stroke-width: 0.55"/>
      </g>
     </g>
     <g id="text_8">
      <text style="font: 5.8px 'Arial', 'Helvetica', 'DejaVu Sans', sans-serif; text-anchor: end" x="41.028063" y="92.378326" transform="rotate(-0 41.028063 92.378326)">110</text>
     </g>
    </g>
    <g id="ytick_3">
     <g id="line2d_9">
      <g>
       <use xlink:href="#m774c30c5f5" x="46.728063" y="67.62256" style="stroke: #000000; stroke-width: 0.55"/>
      </g>
     </g>
     <g id="text_9">
      <text style="font: 5.8px 'Arial', 'Helvetica', 'DejaVu Sans', sans-serif; text-anchor: end" x="41.028063" y="69.698326" transform="rotate(-0 41.028063 69.698326)">120</text>
     </g>
    </g>
    <g id="ytick_4">
     <g id="line2d_10">
      <g>
       <use xlink:href="#m774c30c5f5" x="46.728063" y="44.94256" style="stroke: #000000; stroke-width: 0.55"/>
      </g>
     </g>
     <g id="text_10">
      <text style="font: 5.8px 'Arial', 'Helvetica', 'DejaVu Sans', sans-serif; text-anchor: end" x="41.028063" y="47.018326" transform="rotate(-0 41.028063 47.018326)">130</text>
     </g>
    </g>
    <g id="ytick_5">
     <g id="line2d_11">
      <g>
       <use xlink:href="#m774c30c5f5" x="46.728063" y="22.26256" style="stroke: #000000; stroke-width: 0.55"/>
      </g>
     </g>
     <g id="text_11">
      <text style="font: 5.8px 'Arial', 'Helvetica', 'DejaVu Sans', sans-serif; text-anchor: end" x="41.028063" y="24.338326" transform="rotate(-0 41.028063 24.338326)">140</text>
     </g>
    </g>
    <g id="text_12">
     <text style="font: 6.6px 'Arial', 'Helvetica', 'DejaVu Sans', sans-serif; text-anchor: middle" x="27.962938" y="72.15856" transform="rotate(-90 27.962938 72.15856)">Pressure (kPa)</text>
    </g>
   </g>
   <g id="patch_3">
    <path d="M 46.728063 122.05456 
L 46.728063 22.26256 
" style="fill: none; stroke: #000000; stroke-width: 0.55; stroke-linejoin: miter; stroke-linecap: square"/>
   </g>
   <g id="patch_4">
    <path d="M 46.728063 122.05456 
L 262.188063 122.05456 
" style="fill: none; stroke: #000000; stroke-width: 0.55; stroke-linejoin: miter; stroke-linecap: square"/>
   </g>
   <g id="line2d_12">
    <path d="M 46.728063 107.348848 
L 47.266712 106.822672 
L 47.805363 104.033032 
L 48.882663 95.63236 
L 54.807812 39.893992 
L 56.423763 31.978672 
L 57.501063 37.222288 
L 58.039713 41.889832 
L 58.578362 48.575896 
L 59.117013 50.5672 
L 59.655663 42.438688 
L 60.194313 38.419792 
L 60.732962 37.50352 
L 61.271613 38.701024 
L 61.810263 41.195824 
L 63.964863 54.3094 
L 64.503512 53.456632 
L 65.042163 50.38576 
L 66.119462 41.409016 
L 66.658113 39.880384 
L 67.196763 40.275016 
L 67.735412 42.352504 
L 68.812713 47.954464 
L 69.351363 51.152344 
L 69.890013 53.374984 
L 70.428663 51.923464 
L 70.967313 48.32188 
L 72.044612 38.859784 
L 72.583263 37.136104 
L 73.121913 37.6396 
L 73.660562 39.413176 
L 74.737863 45.051424 
L 75.815162 51.152344 
L 76.353813 53.225296 
L 76.892463 51.51976 
L 77.431113 47.795704 
L 78.508413 38.215672 
L 79.047063 36.691576 
L 79.585712 37.557952 
L 80.124363 39.630904 
L 81.201662 45.219256 
L 82.278963 51.61048 
L 82.817612 53.90116 
L 83.356263 52.413352 
L 83.894913 48.61672 
L 84.972213 38.510512 
L 85.510863 36.464776 
L 86.049513 36.746008 
L 87.126812 41.667568 
L 89.281413 52.612936 
L 89.820063 50.630704 
L 90.358712 46.534696 
L 91.436013 36.197152 
L 91.974663 34.337392 
L 92.513313 34.663984 
L 93.051963 36.342304 
L 94.129263 41.690248 
L 95.745213 50.86204 
L 96.283862 52.944064 
L 96.822513 50.979976 
L 97.361163 46.770568 
L 98.438463 35.9386 
L 98.977113 33.634312 
L 99.515763 33.6706 
L 100.054413 35.172016 
L 101.131713 40.370272 
L 102.747663 49.587424 
L 103.286313 51.624088 
L 103.824962 49.86412 
L 104.902263 41.304688 
L 105.440913 39.449464 
L 105.979563 39.61276 
L 106.518213 41.068816 
L 107.595513 45.768112 
L 108.672813 51.33832 
L 109.211463 53.179936 
L 109.750113 51.324712 
L 110.288763 47.079016 
L 111.366062 36.25612 
L 111.904713 33.879256 
L 112.443363 34.069768 
L 112.982012 35.729944 
L 114.059313 41.050672 
L 115.675263 49.895872 
L 116.213913 51.76924 
L 116.752563 49.873192 
L 117.829863 41.073352 
L 118.368513 39.263488 
L 118.907162 39.454 
L 119.445813 40.95088 
L 120.523112 45.904192 
L 121.600413 51.624088 
L 122.139063 53.570032 
L 122.677713 51.819136 
L 123.216363 48.04972 
L 124.293663 37.476304 
L 124.832313 35.571184 
L 125.370963 35.684584 
L 125.909613 37.358368 
L 126.986913 42.511264 
L 128.602863 51.928 
L 129.141513 53.892088 
L 129.680163 51.986968 
L 130.218813 47.727664 
L 131.296113 36.52828 
L 131.834763 34.223992 
L 132.373413 34.28296 
L 132.912063 35.888704 
L 133.989362 41.209432 
L 135.605313 50.258752 
L 136.143963 52.077688 
L 136.682613 50.027416 
L 137.759913 41.413552 
L 138.298563 39.785128 
L 138.837213 39.993784 
L 139.375863 41.499736 
L 139.914513 43.726912 
L 140.991813 49.2064 
L 141.530462 50.966368 
L 142.069113 49.124752 
L 143.146413 40.547176 
L 143.685063 38.741848 
L 144.223713 38.95504 
L 144.762363 40.447384 
L 145.301013 42.615592 
L 146.916963 50.921008 
L 147.455613 52.839736 
L 147.994263 50.916472 
L 148.532913 46.834072 
L 149.610213 36.088288 
L 150.148863 33.73864 
L 150.687513 33.684208 
L 151.226163 35.16748 
L 151.764813 37.494448 
L 153.919413 49.814224 
L 154.458063 51.673984 
L 154.996713 49.673608 
L 156.074013 41.227576 
L 156.612663 39.512968 
L 157.151313 39.721624 
L 157.689963 41.191288 
L 158.767263 45.976768 
L 159.844563 51.49708 
L 160.383213 53.252512 
L 160.921863 51.342856 
L 161.460513 47.206024 
L 162.537813 36.464776 
L 163.076463 34.219456 
L 163.615113 34.251208 
L 164.153763 35.770768 
L 165.231063 40.823872 
L 166.847013 49.86412 
L 167.385663 51.878104 
L 167.924313 50.1136 
L 169.001613 41.69932 
L 169.540263 39.785128 
L 170.078913 39.93028 
L 170.617563 41.368192 
L 171.694863 46.253464 
L 172.233513 49.020424 
L 172.772163 50.961832 
L 173.310813 48.947848 
L 174.388113 40.533568 
L 174.926763 38.832568 
L 175.465413 39.050296 
L 176.004063 40.574392 
L 177.081363 45.400696 
L 178.158663 51.102448 
L 178.697313 52.780768 
L 179.235962 50.716888 
L 179.774613 46.652632 
L 180.851912 36.07468 
L 181.390563 33.294112 
L 181.929213 33.384832 
L 182.467863 35.05408 
L 183.545163 40.420168 
L 185.161113 49.70536 
L 185.699763 51.742024 
L 186.238413 49.90948 
L 187.315713 41.282008 
L 187.854363 39.463072 
L 188.393013 39.898528 
L 188.931663 41.350048 
L 190.008963 46.094704 
L 191.086263 51.306568 
L 191.624913 53.170864 
L 192.163563 51.102448 
L 192.702213 46.634488 
L 193.779513 36.02932 
L 194.318162 33.82936 
L 194.856813 33.8974 
L 195.395463 35.3716 
L 195.934113 37.644136 
L 197.550063 46.516552 
L 198.088713 49.596496 
L 198.627363 51.637696 
L 199.166013 49.84144 
L 200.243313 41.300152 
L 200.781963 39.458536 
L 201.320613 39.549256 
L 201.859263 40.946344 
L 202.397913 43.032904 
L 203.475213 48.349096 
L 204.013863 51.17956 
L 204.552513 53.116432 
L 205.091163 51.265744 
L 205.629813 46.947472 
L 206.707113 36.265192 
L 207.245763 33.82936 
L 207.784413 33.71596 
L 208.323063 35.040472 
L 208.861713 37.2994 
L 210.477663 46.0312 
L 211.554963 51.810064 
L 212.093613 51.401824 
L 212.632263 47.519008 
L 213.709563 36.609928 
L 214.248213 34.360072 
L 214.786863 34.4644 
L 215.325513 35.797984 
L 215.864163 37.925368 
L 216.941463 43.373104 
L 218.018763 49.664536 
L 218.557413 51.478936 
L 219.096063 49.396912 
L 220.173363 40.665112 
L 220.712013 38.868856 
L 221.250663 39.06844 
L 221.789313 40.529032 
L 222.866613 45.21472 
L 224.482563 53.238904 
L 225.021213 51.642232 
L 225.559863 47.292208 
L 226.637163 36.469312 
L 227.175813 34.174096 
L 227.714463 34.28296 
L 228.253113 36.151792 
L 229.869063 43.83124 
L 230.946363 49.691752 
L 231.485013 51.810064 
L 232.023663 49.995664 
L 233.100963 41.345512 
L 233.639613 39.345136 
L 234.178263 38.891536 
L 234.716913 40.483672 
L 235.794213 45.114928 
L 236.871513 50.512768 
L 237.410163 52.3816 
L 237.948813 50.712352 
L 238.487463 46.566448 
L 239.564763 35.866024 
L 240.103413 33.584416 
L 240.642063 33.588952 
L 241.180713 35.2582 
L 241.719363 37.59424 
L 243.335313 46.625416 
L 243.873963 49.746184 
L 244.412613 51.569656 
L 244.951263 49.56928 
L 246.028563 40.964488 
L 246.567213 39.236272 
L 247.105863 39.326992 
L 247.644513 40.660576 
L 248.721813 45.414304 
L 249.799113 50.834824 
L 250.337763 52.622008 
L 250.876413 50.65792 
L 251.415063 46.512016 
L 252.492363 35.89324 
L 253.031013 33.684208 
L 253.569663 33.87472 
L 254.108313 35.385208 
L 255.185613 40.411096 
L 256.801563 49.088464 
L 257.340213 51.161416 
L 257.878863 49.351552 
L 258.956163 40.742224 
L 259.494813 38.72824 
L 260.033463 38.927824 
L 260.572113 40.297696 
L 261.110763 42.420544 
L 261.649413 45.323584 
L 261.649413 45.323584 
" clip-path="url(#pc337ca256a)" style="fill: none; stroke: #2b6f8e; stroke-width: 0.7; stroke-linecap: square"/>
   </g>
   <g id="line2d_13">
    <path d="M 46.728063 116.706616 
L 47.266712 113.862544 
L 47.805363 109.163248 
L 49.421312 89.799064 
L 53.191862 43.554544 
L 54.269163 33.19432 
L 54.807812 32.1964 
L 55.346463 33.820288 
L 55.885113 36.895696 
L 56.962412 45.232864 
L 58.039713 53.325088 
L 58.578362 52.853344 
L 59.117013 49.900408 
L 60.194313 40.333984 
L 60.732962 35.548504 
L 61.271613 34.183168 
L 61.810263 35.217376 
L 62.348913 37.743928 
L 63.426213 45.03328 
L 64.503512 52.281808 
L 65.042163 51.379144 
L 65.580813 47.718592 
L 66.658113 37.068064 
L 67.196763 31.67476 
L 67.735412 29.801392 
L 68.274062 30.47272 
L 68.812713 32.640928 
L 69.890013 39.621832 
L 70.967313 47.972608 
L 71.505963 50.784928 
L 72.044612 49.27444 
L 72.583263 45.378016 
L 73.660562 35.321704 
L 74.199213 33.520912 
L 74.737863 34.337392 
L 75.276512 36.68704 
L 76.353813 43.123624 
L 77.431113 50.031952 
L 77.969763 52.499536 
L 78.508413 50.848432 
L 79.047063 46.68892 
L 80.124363 35.91592 
L 80.663013 33.847504 
L 81.201662 34.183168 
L 81.740313 36.079216 
L 82.278963 38.769064 
L 83.356263 45.550384 
L 83.894913 49.383304 
L 84.433563 52.06408 
L 84.972213 50.40844 
L 85.510863 46.208104 
L 86.588163 35.253664 
L 87.126812 32.781544 
L 87.665463 32.8768 
L 88.204113 34.722952 
L 89.281413 40.801192 
L 90.358712 48.036112 
L 90.897363 50.63524 
L 91.436013 49.210936 
L 91.974663 45.07864 
L 93.051963 32.981128 
L 93.590613 31.057864 
L 94.129263 31.497856 
L 94.667912 33.389368 
L 95.745213 39.485752 
L 97.361163 50.245144 
L 97.899813 52.549432 
L 98.438463 50.52184 
L 98.977113 46.044808 
L 100.054413 34.809136 
L 100.593063 32.40052 
L 101.131713 32.464024 
L 101.670363 34.196776 
L 102.747663 39.984712 
L 104.902263 52.921384 
L 105.440913 51.206776 
L 105.979563 46.947472 
L 107.056863 35.80252 
L 107.595513 33.46648 
L 108.134163 33.425656 
L 108.672813 35.00872 
L 109.750113 40.67872 
L 111.366062 50.095456 
L 111.904713 48.303736 
L 112.443363 43.85392 
L 113.520663 32.790616 
L 114.059313 30.636016 
L 114.597963 30.871888 
L 115.136613 32.713504 
L 116.213913 38.755456 
L 117.829863 49.324336 
L 118.368513 51.628624 
L 118.907162 49.63732 
L 119.445813 45.205648 
L 120.523112 34.001728 
L 121.061763 31.701976 
L 121.600413 31.774552 
L 122.139063 33.457408 
L 122.677713 36.07468 
L 124.293663 46.049344 
L 124.832313 49.542064 
L 125.370963 51.900784 
L 125.909613 50.06824 
L 126.448262 45.704608 
L 127.525563 34.505224 
L 128.064213 32.019496 
L 128.602863 32.17372 
L 129.141513 33.765856 
L 130.218813 39.372352 
L 132.373413 52.31356 
L 132.912063 50.467408 
L 133.450713 46.130992 
L 134.528013 33.46648 
L 135.066663 31.162192 
L 135.605313 31.361776 
L 136.143963 33.23968 
L 137.221263 39.086584 
L 138.837213 49.664536 
L 139.375863 51.959752 
L 139.914513 50.063704 
L 140.453163 45.618424 
L 141.530462 34.355536 
L 142.069113 31.955992 
L 142.607763 32.146504 
L 143.146413 33.793072 
L 144.223713 39.812344 
L 145.839663 50.099992 
L 146.378313 52.531288 
L 146.916963 50.707816 
L 147.455613 46.412224 
L 148.532913 34.972432 
L 149.071563 32.368768 
L 149.610213 32.386912 
L 150.148863 33.96544 
L 151.226163 39.599152 
L 153.380763 52.195624 
L 153.919413 50.331328 
L 154.458063 45.777184 
L 155.535363 34.48708 
L 156.074013 32.21908 
L 156.612663 32.436808 
L 157.151313 34.228528 
L 158.228613 39.971104 
L 159.844563 50.27236 
L 160.383213 52.54036 
L 160.921863 50.598952 
L 161.460513 46.153672 
L 162.537813 34.886248 
L 163.076463 32.690824 
L 163.615113 32.71804 
L 164.153763 34.405432 
L 165.231063 40.04368 
L 167.385663 52.44964 
L 167.924313 50.562664 
L 168.462963 46.271608 
L 169.540263 34.777384 
L 170.078913 32.278048 
L 170.617563 32.291656 
L 171.156213 33.951832 
L 171.694863 36.473848 
L 173.310813 46.267072 
L 173.849463 50.050096 
L 174.388113 52.22284 
L 174.926763 50.285968 
L 175.465413 45.890584 
L 176.542713 34.351 
L 177.081363 31.271056 
L 177.620013 31.438888 
L 178.158663 33.189784 
L 179.235962 39.014008 
L 180.851912 49.424128 
L 181.390563 51.683056 
L 181.929213 49.791544 
L 182.467863 45.346264 
L 183.545163 33.947296 
L 184.083813 31.497856 
L 184.622463 31.615792 
L 185.161113 33.230608 
L 185.699763 35.693656 
L 186.777062 42.075808 
L 187.854363 49.11568 
L 188.393013 51.442648 
L 188.931663 49.755256 
L 189.470313 45.455128 
L 190.547613 33.947296 
L 191.086263 31.393528 
L 191.624913 31.407136 
L 192.163563 33.021952 
L 193.240863 38.632984 
L 195.395463 51.361 
L 195.934113 49.451344 
L 196.472763 45.182968 
L 197.550063 33.702352 
L 198.088713 31.298272 
L 198.627363 31.370848 
L 199.166013 33.031024 
L 200.243313 38.560408 
L 201.859263 48.675688 
L 202.397913 50.979976 
L 202.936563 49.11568 
L 203.475213 44.788336 
L 204.552513 33.248752 
L 205.091163 30.758488 
L 205.629813 30.871888 
L 206.168463 32.459488 
L 206.707113 35.004184 
L 208.323063 44.91988 
L 208.861713 48.267448 
L 209.400363 50.70328 
L 209.939013 48.91156 
L 210.477663 44.62504 
L 211.554963 33.185248 
L 212.093613 30.531688 
L 212.632263 30.454576 
L 213.170913 32.110216 
L 214.248213 37.780216 
L 216.402813 50.535448 
L 216.941463 48.471568 
L 217.480113 43.976392 
L 218.557413 31.865272 
L 219.096063 29.683456 
L 219.634713 29.819536 
L 220.173363 31.525072 
L 221.250663 37.417336 
L 222.866613 47.700448 
L 223.405263 49.8868 
L 223.943913 48.067864 
L 224.482563 43.681552 
L 225.559863 32.482168 
L 226.098513 30.028192 
L 226.637163 30.010048 
L 227.175813 31.611256 
L 228.253113 37.313008 
L 229.869063 47.555296 
L 230.407713 50.050096 
L 230.946363 48.290128 
L 231.485013 44.157832 
L 232.562313 33.112672 
L 233.100963 30.599728 
L 233.639613 30.454576 
L 234.178263 32.010424 
L 234.716913 34.496152 
L 235.794213 40.991704 
L 236.871513 48.267448 
L 237.410163 50.481016 
L 237.948813 48.530536 
L 238.487463 44.130616 
L 239.564763 32.949376 
L 240.103413 30.599728 
L 240.642063 30.74488 
L 241.180713 32.395984 
L 241.719363 34.927072 
L 243.335313 44.765656 
L 243.873963 48.0724 
L 244.412613 50.349472 
L 244.951263 48.530536 
L 245.489913 44.271232 
L 246.567213 32.863192 
L 247.105863 30.513544 
L 247.644513 30.572512 
L 248.183163 32.205472 
L 249.260463 37.830112 
L 251.415063 50.562664 
L 251.953713 48.857128 
L 252.492363 44.484424 
L 253.569663 32.885872 
L 254.108313 30.323032 
L 254.646963 30.327568 
L 255.185613 31.906096 
L 255.724263 34.391824 
L 256.801563 40.864696 
L 257.878863 47.841064 
L 258.417513 50.335864 
L 258.956163 48.852592 
L 259.494813 44.561536 
L 260.033463 37.018168 
L 260.572113 31.615792 
L 261.110763 29.325112 
L 261.649413 29.49748 
L 261.649413 29.49748 
" clip-path="url(#pc337ca256a)" style="fill: none; stroke: #7a7f87; stroke-width: 0.7; stroke-linecap: square"/>
   </g>
   <g id="text_13">
    <text style="font: 700 7.2px 'Arial', 'Helvetica', 'DejaVu Sans', sans-serif; text-anchor: start" x="24.104762" y="16.27504" transform="rotate(-0 24.104762 16.27504)">(a)</text>
   </g>
   <g id="line2d_14">
    <path d="M 46.728063 107.825128 
L 47.266712 102.740272 
L 48.344012 85.081624 
L 48.882663 76.758064 
L 49.959963 65.363632 
L 50.498613 63.068416 
L 51.037262 58.55056 
L 51.575913 56.39596 
L 52.114562 52.844272 
L 52.653213 47.088088 
L 53.191862 45.514096 
L 53.730513 42.121168 
L 54.269163 39.857704 
L 54.807812 39.344682 
L 55.346463 36.633062 
L 55.885113 39.652677 
L 56.423763 41.408562 
L 56.962412 43.608976 
L 57.501063 42.523058 
L 58.039713 42.71357 
L 58.578362 41.399037 
L 59.117013 38.214311 
L 59.655663 38.132391 
L 60.194313 36.267596 
L 60.732962 35.771947 
L 61.271613 36.338721 
L 61.810263 37.545614 
L 63.964863 44.522481 
L 64.503512 44.373564 
L 65.042163 42.977746 
L 65.580813 40.819563 
L 66.658113 35.714159 
L 67.196763 34.802876 
L 67.735412 35.027363 
L 68.274062 35.985321 
L 69.351363 39.025892 
L 70.967313 43.95793 
L 71.505963 43.604531 
L 72.044612 41.977558 
L 73.121913 37.038852 
L 73.660562 36.13646 
L 74.199213 36.292045 
L 74.737863 37.147762 
L 75.815162 39.997186 
L 77.969763 46.325042 
L 78.508413 47.456366 
L 79.047063 46.702891 
L 79.585712 44.778085 
L 80.663013 39.657122 
L 81.201662 38.474678 
L 81.740313 38.314648 
L 82.278963 38.954768 
L 83.356263 41.381891 
L 84.972213 45.469326 
L 85.510863 44.878103 
L 86.049513 43.024422 
L 87.126812 38.067934 
L 87.665463 36.823256 
L 88.204113 36.745464 
L 88.742762 37.403365 
L 89.820063 40.114986 
L 91.436013 44.70696 
L 91.974663 45.751601 
L 92.513313 45.031466 
L 93.051963 43.062207 
L 94.129263 37.923463 
L 94.667912 36.632109 
L 95.206563 36.56543 
L 95.745213 37.203328 
L 96.283862 38.265749 
L 98.438463 43.817904 
L 98.977113 43.215569 
L 99.515763 41.417453 
L 100.593063 36.020883 
L 101.131713 34.787318 
L 101.670363 34.847329 
L 102.209013 35.627476 
L 103.286313 38.205738 
L 105.979563 45.878291 
L 106.518213 46.902928 
L 107.056863 46.022763 
L 107.595513 43.989047 
L 108.672813 38.592478 
L 109.211463 37.218886 
L 109.750113 37.029962 
L 110.288763 37.68564 
L 110.827413 38.683606 
L 111.904713 41.319657 
L 112.982012 43.897919 
L 113.520663 43.280025 
L 114.059313 41.375223 
L 115.136613 35.90086 
L 115.675263 34.631733 
L 116.213913 34.633956 
L 116.752563 35.365204 
L 117.829863 37.961248 
L 119.984463 44.106847 
L 120.523112 45.10259 
L 121.061763 44.342447 
L 121.600413 42.379856 
L 122.677713 37.018848 
L 123.216363 35.77417 
L 123.755013 35.594136 
L 124.293663 36.167577 
L 124.832313 37.203328 
L 125.909613 39.89939 
L 128.064213 45.77605 
L 129.680163 49.534534 
L 130.218813 50.654745 
L 130.757463 51.399329 
L 131.296113 50.4147 
L 131.834763 48.256516 
L 132.912063 42.419864 
L 133.450713 40.799559 
L 133.989362 40.475054 
L 134.528013 40.837344 
L 135.066663 41.695283 
L 136.143963 43.717885 
L 136.682613 42.953297 
L 137.221263 41.092948 
L 138.298563 35.796396 
L 138.837213 34.687299 
L 139.375863 34.702858 
L 139.914513 35.418548 
L 140.991813 37.974584 
L 143.685063 45.527114 
L 144.223713 46.896261 
L 144.762363 47.896449 
L 145.301013 46.987389 
L 145.839663 44.964786 
L 146.916963 39.519318 
L 147.455613 38.170176 
L 147.994263 38.010146 
L 148.532913 38.508017 
L 149.071563 39.525986 
L 151.226163 45.169269 
L 151.764813 46.111669 
L 152.303463 45.278179 
L 152.842113 43.364486 
L 153.919413 38.15684 
L 154.458063 36.954392 
L 154.996713 36.836592 
L 155.535363 37.39892 
L 156.074013 38.421334 
L 157.689963 42.55989 
L 159.305913 46.84514 
L 159.844563 47.83866 
L 160.383213 47.000725 
L 160.921863 45.038134 
L 161.999163 39.583775 
L 162.537813 38.230187 
L 163.076463 37.939021 
L 163.615113 38.385772 
L 164.153763 39.312613 
L 165.231063 41.913102 
L 166.308363 44.884771 
L 167.385663 47.545271 
L 167.924313 48.392097 
L 168.462963 47.456366 
L 169.001613 45.458212 
L 170.078913 40.066088 
L 170.617563 38.776957 
L 171.156213 38.608036 
L 171.694863 39.057009 
L 172.233513 40.019412 
L 173.310813 42.486543 
L 174.926763 46.658438 
L 175.465413 47.658626 
L 176.004063 46.954049 
L 176.542713 45.011462 
L 177.620013 39.592666 
L 178.158663 38.219074 
L 178.697313 37.979029 
L 179.235962 38.4769 
L 179.774613 39.412632 
L 180.851912 42.104249 
L 181.929213 44.920334 
L 182.467863 45.918299 
L 183.006513 45.084809 
L 183.545163 43.193342 
L 184.622463 37.974584 
L 185.161113 36.73435 
L 185.699763 36.567652 
L 186.238413 37.132203 
L 187.315713 39.34373 
L 187.854363 40.521729 
L 189.470313 44.991458 
L 190.008963 46.033876 
L 190.547613 45.26262 
L 191.086263 43.31781 
L 192.163563 37.992365 
L 192.702213 36.676562 
L 193.240863 36.492083 
L 193.779513 37.061079 
L 194.318162 38.052376 
L 195.395463 40.759552 
L 197.011413 45.14482 
L 197.550063 46.305038 
L 198.088713 45.653805 
L 198.627363 43.546742 
L 199.704663 38.270195 
L 200.243313 36.972173 
L 200.781963 36.821033 
L 201.320613 37.378916 
L 201.859263 38.334651 
L 202.936563 41.044049 
L 205.091163 46.707336 
L 205.629813 48.003135 
L 206.168463 48.889969 
L 206.707113 47.983132 
L 207.245763 46.007205 
L 208.323063 40.466163 
L 208.861713 39.068122 
L 209.400363 38.752508 
L 209.939013 39.174809 
L 210.477663 40.01719 
L 211.554963 42.482098 
L 212.093613 43.877915 
L 212.632263 44.911443 
L 213.170913 44.251319 
L 213.709563 42.328735 
L 214.786863 37.032184 
L 215.325513 35.694155 
L 215.864163 35.509676 
L 216.402813 36.120902 
L 217.480113 38.488013 
L 220.712013 46.8118 
L 221.250663 45.982756 
L 221.789313 43.951263 
L 222.866613 38.532466 
L 223.405263 37.19666 
L 223.943913 36.987731 
L 224.482563 37.47449 
L 225.021213 38.414666 
L 226.098513 41.057385 
L 228.253113 46.649548 
L 228.791763 47.936456 
L 229.330413 48.809954 
L 229.869063 47.936456 
L 230.407713 45.920522 
L 231.485013 40.212782 
L 232.023663 38.312425 
L 232.562313 38.070157 
L 233.100963 38.581364 
L 233.639613 39.490424 
L 234.716913 42.00423 
L 236.871513 47.491928 
L 237.410163 48.412101 
L 237.948813 47.565275 
L 238.487463 45.516001 
L 239.564763 40.088314 
L 240.103413 38.694719 
L 240.642063 38.361323 
L 241.180713 38.808074 
L 241.719363 39.674903 
L 242.796663 42.190932 
L 244.412613 46.102778 
L 244.951263 45.424873 
L 245.489913 43.58675 
L 246.567213 38.170176 
L 247.105863 37.001067 
L 247.644513 36.863264 
L 248.183163 37.418924 
L 248.721813 38.430225 
L 250.337763 42.099803 
L 250.876413 41.470796 
L 251.415063 39.743805 
L 252.492363 34.645069 
L 253.031013 33.911779 
L 253.569663 33.613855 
L 254.108313 34.060515 
L 254.646963 35.169612 
L 256.262913 39.608224 
L 257.878863 44.264655 
L 258.417513 45.213722 
L 258.956163 44.366896 
L 259.494813 42.348739 
L 260.572113 36.992177 
L 261.110763 35.691932 
L 261.649413 35.494117 
L 261.649413 35.494117 
" clip-path="url(#pc337ca256a)" style="fill: none; stroke: #c8403d; stroke-width: 0.85; stroke-linecap: square"/>
   </g>
   <g id="legend_1">
    <g id="line2d_15">
     <path d="M 91.219484 11.712219 
L 96.439484 11.712219 
L 101.659484 11.712219 
" style="fill: none; stroke: #c8403d; stroke-width: 0.85; stroke-linecap: square"/>
    </g>
    <g id="text_14">
     <text style="font: 5.8px 'Arial', 'Helvetica', 'DejaVu Sans', sans-serif; text-anchor: start" x="106.299484" y="13.742219" transform="rotate(-0 106.299484 13.742219)">PhysRes-MPC</text>
    </g>
    <g id="line2d_16">
     <path d="M 152.447547 11.712219 
L 157.667547 11.712219 
L 162.887547 11.712219 
" style="fill: none; stroke: #2b6f8e; stroke-width: 0.7; stroke-linecap: square"/>
    </g>
    <g id="text_15">
     <text style="font: 5.8px 'Arial', 'Helvetica', 'DejaVu Sans', sans-serif; text-anchor: start" x="167.527547" y="13.742219" transform="rotate(-0 167.527547 13.742219)">PID</text>
    </g>
    <g id="line2d_17">
     <path d="M 185.316328 11.712219 
L 190.536328 11.712219 
L 195.756328 11.712219 
" style="fill: none; stroke: #7a7f87; stroke-width: 0.7; stroke-linecap: square"/>
    </g>
    <g id="text_16">
     <text style="font: 5.8px 'Arial', 'Helvetica', 'DejaVu Sans', sans-serif; text-anchor: start" x="200.396328" y="13.742219" transform="rotate(-0 200.396328 13.742219)">On-Off</text>
    </g>
   </g>
  </g>
  <g id="axes_2">
   <g id="patch_5">
    <path d="M 46.728063 196.89856 
L 99.279282 196.89856 
L 99.279282 156.98176 
L 46.728063 156.98176 
z
" style="fill: #ffffff"/>
   </g>
   <g id="matplotlib.axis_3">
    <g id="xtick_6">
     <g id="line2d_18">
      <path d="M 46.728063 196.89856 
L 46.728063 156.98176 
" clip-path="url(#p43f9b1cd27)" style="fill: none; stroke: #e2e2e2; stroke-width: 0.45; stroke-linecap: square"/>
     </g>
     <g id="line2d_19">
      <g>
       <use xlink:href="#mefa2552c77" x="46.728063" y="196.89856" style="stroke: #000000; stroke-width: 0.55"/>
      </g>
     </g>
     <g id="text_17">
      <text style="font: 5.8px 'Arial', 'Helvetica', 'DejaVu Sans', sans-serif; text-anchor: middle" x="46.728063" y="206.750091" transform="rotate(-0 46.728063 206.750091)">0</text>
     </g>
    </g>
    <g id="xtick_7">
     <g id="line2d_20">
      <path d="M 89.108078 196.89856 
L 89.108078 156.98176 
" clip-path="url(#p43f9b1cd27)" style="fill: none; stroke: #e2e2e2; stroke-width: 0.45; stroke-linecap: square"/>
     </g>
     <g id="line2d_21">
      <g>
       <use xlink:href="#mefa2552c77" x="89.108078" y="196.89856" style="stroke: #000000; stroke-width: 0.55"/>
      </g>
     </g>
     <g id="text_18">
      <text style="font: 5.8px 'Arial', 'Helvetica', 'DejaVu Sans', sans-serif; text-anchor: middle" x="89.108078" y="206.750091" transform="rotate(-0 89.108078 206.750091)">3.5</text>
     </g>
    </g>
   </g>
   <g id="matplotlib.axis_4">
    <g id="ytick_6">
     <g id="line2d_22"/>
     <g id="text_19">
      <text style="font: 5.8px 'Arial', 'Helvetica', 'DejaVu Sans', sans-serif; text-anchor: end" x="45.228063" y="166.174882" transform="rotate(-0 45.228063 166.174882)">PhysRes-MPC</text>
     </g>
    </g>
    <g id="ytick_7">
     <g id="line2d_23"/>
     <g id="text_20">
      <text style="font: 5.8px 'Arial', 'Helvetica', 'DejaVu Sans', sans-serif; text-anchor: end" x="45.228063" y="179.015926" transform="rotate(-0 45.228063 179.015926)">PID</text>
     </g>
    </g>
    <g id="ytick_8">
     <g id="line2d_24"/>
     <g id="text_21">
      <text style="font: 5.8px 'Arial', 'Helvetica', 'DejaVu Sans', sans-serif; text-anchor: end" x="45.228063" y="191.892313" transform="rotate(-0 45.228063 191.892313)">On-Off</text>
     </g>
    </g>
   </g>
   <g id="LineCollection_1">
    <path d="M 46.728063 164.063773 
L 73.972358 164.063773 
" clip-path="url(#p43f9b1cd27)" style="fill: none; stroke: #c8403d; stroke-opacity: 0.58; stroke-width: 0.9"/>
   </g>
   <g id="LineCollection_2">
    <path d="M 46.728063 176.94016 
L 80.026646 176.94016 
" clip-path="url(#p43f9b1cd27)" style="fill: none; stroke: #2b6f8e; stroke-opacity: 0.58; stroke-width: 0.9"/>
   </g>
   <g id="LineCollection_3">
    <path d="M 46.728063 189.816547 
L 89.108078 189.816547 
" clip-path="url(#p43f9b1cd27)" style="fill: none; stroke: #7a7f87; stroke-opacity: 0.58; stroke-width: 0.9"/>
   </g>
   <g id="patch_6">
    <path d="M 46.728063 196.89856 
L 99.279282 196.89856 
" style="fill: none; stroke: #000000; stroke-width: 0.55; stroke-linejoin: miter; stroke-linecap: square"/>
   </g>
   <g id="line2d_25">
    <defs>
     <path id="mfbe7e6502f" d="M 0 1.5 
C 0.397805 1.5 0.77937 1.341951 1.06066 1.06066 
C 1.341951 0.77937 1.5 0.397805 1.5 0 
C 1.5 -0.397805 1.341951 -0.77937 1.06066 -1.06066 
C 0.77937 -1.341951 0.397805 -1.5 0 -1.5 
C -0.397805 -1.5 -0.77937 -1.341951 -1.06066 -1.06066 
C -1.341951 -0.77937 -1.5 -0.397805 -1.5 0 
C -1.5 0.397805 -1.341951 0.77937 -1.06066 1.06066 
C -0.77937 1.341951 -0.397805 1.5 0 1.5 
z
" style="stroke: #c8403d"/>
    </defs>
    <g clip-path="url(#p43f9b1cd27)">
     <use xlink:href="#mfbe7e6502f" x="73.972358" y="164.063773" style="fill: #c8403d; stroke: #c8403d"/>
    </g>
   </g>
   <g id="text_22">
    <text style="fill: #c8403d; font: 5.2px 'Arial', 'Helvetica', 'DejaVu Sans', sans-serif; text-anchor: middle" x="73.972358" y="160.197468" transform="rotate(-0 73.972358 160.197468)">2.25</text>
   </g>
   <g id="line2d_26">
    <defs>
     <path id="mb953486289" d="M 0 1.5 
C 0.397805 1.5 0.77937 1.341951 1.06066 1.06066 
C 1.341951 0.77937 1.5 0.397805 1.5 0 
C 1.5 -0.397805 1.341951 -0.77937 1.06066 -1.06066 
C 0.77937 -1.341951 0.397805 -1.5 0 -1.5 
C -0.397805 -1.5 -0.77937 -1.341951 -1.06066 -1.06066 
C -1.341951 -0.77937 -1.5 -0.397805 -1.5 0 
C -1.5 0.397805 -1.341951 0.77937 -1.06066 1.06066 
C -0.77937 1.341951 -0.397805 1.5 0 1.5 
z
" style="stroke: #2b6f8e"/>
    </defs>
    <g clip-path="url(#p43f9b1cd27)">
     <use xlink:href="#mb953486289" x="80.026646" y="176.94016" style="fill: #2b6f8e; stroke: #2b6f8e"/>
    </g>
   </g>
   <g id="text_23">
    <text style="fill: #2b6f8e; font: 5.2px 'Arial', 'Helvetica', 'DejaVu Sans', sans-serif; text-anchor: middle" x="80.026646" y="173.073855" transform="rotate(-0 80.026646 173.073855)">2.75</text>
   </g>
   <g id="line2d_27">
    <defs>
     <path id="m674ecba786" d="M 0 1.5 
C 0.397805 1.5 0.77937 1.341951 1.06066 1.06066 
C 1.341951 0.77937 1.5 0.397805 1.5 0 
C 1.5 -0.397805 1.341951 -0.77937 1.06066 -1.06066 
C 0.77937 -1.341951 0.397805 -1.5 0 -1.5 
C -0.397805 -1.5 -0.77937 -1.341951 -1.06066 -1.06066 
C -1.341951 -0.77937 -1.5 -0.397805 -1.5 0 
C -1.5 0.397805 -1.341951 0.77937 -1.06066 1.06066 
C -0.77937 1.341951 -0.397805 1.5 0 1.5 
z
" style="stroke: #7a7f87"/>
    </defs>
    <g clip-path="url(#p43f9b1cd27)">
     <use xlink:href="#m674ecba786" x="89.108078" y="189.816547" style="fill: #7a7f87; stroke: #7a7f87"/>
    </g>
   </g>
   <g id="text_24">
    <text style="fill: #7a7f87; font: 5.2px 'Arial', 'Helvetica', 'DejaVu Sans', sans-serif; text-anchor: middle" x="89.108078" y="185.950242" transform="rotate(-0 89.108078 185.950242)">3.5</text>
   </g>
   <g id="text_25">
    <text style="font: 700 7.2px 'Arial', 'Helvetica', 'DejaVu Sans', sans-serif; text-anchor: start" x="23.605526" y="149.796736" transform="rotate(-0 23.605526 149.796736)">(b)</text>
   </g>
   <g id="text_26">
    <text style="font: 6.3px 'Arial', 'Helvetica', 'DejaVu Sans', sans-serif" transform="translate(66.177524 148.226191)">MAE</text>
    <text style="font: 6.3px 'Arial', 'Helvetica', 'DejaVu Sans', sans-serif" transform="translate(65.478125 154.98176)">(kPa)</text>
   </g>
  </g>
  <g id="axes_3">
   <g id="patch_7">
    <path d="M 128.182453 196.89856 
L 180.733672 196.89856 
L 180.733672 156.98176 
L 128.182453 156.98176 
z
" style="fill: #ffffff"/>
   </g>
   <g id="matplotlib.axis_5">
    <g id="xtick_8">
     <g id="line2d_28">
      <path d="M 128.182453 196.89856 
L 128.182453 156.98176 
" clip-path="url(#p7c481c12ba)" style="fill: none; stroke: #e2e2e2; stroke-width: 0.45; stroke-linecap: square"/>
     </g>
     <g id="line2d_29">
      <g>
       <use xlink:href="#mefa2552c77" x="128.182453" y="196.89856" style="stroke: #000000; stroke-width: 0.55"/>
      </g>
     </g>
     <g id="text_27">
      <text style="font: 5.8px 'Arial', 'Helvetica', 'DejaVu Sans', sans-serif; text-anchor: middle" x="128.182453" y="206.750091" transform="rotate(-0 128.182453 206.750091)">0</text>
     </g>
    </g>
    <g id="xtick_9">
     <g id="line2d_30">
      <path d="M 170.562468 196.89856 
L 170.562468 156.98176 
" clip-path="url(#p7c481c12ba)" style="fill: none; stroke: #e2e2e2; stroke-width: 0.45; stroke-linecap: square"/>
     </g>
     <g id="line2d_31">
      <g>
       <use xlink:href="#mefa2552c77" x="170.562468" y="196.89856" style="stroke: #000000; stroke-width: 0.55"/>
      </g>
     </g>
     <g id="text_28">
      <text style="font: 5.8px 'Arial', 'Helvetica', 'DejaVu Sans', sans-serif; text-anchor: middle" x="170.562468" y="206.750091" transform="rotate(-0 170.562468 206.750091)">21.8</text>
     </g>
    </g>
   </g>
   <g id="matplotlib.axis_6">
    <g id="ytick_9">
     <g id="line2d_32"/>
    </g>
    <g id="ytick_10">
     <g id="line2d_33"/>
    </g>
    <g id="ytick_11">
     <g id="line2d_34"/>
    </g>
   </g>
   <g id="LineCollection_4">
    <path d="M 128.182453 164.063773 
L 163.175126 164.063773 
" clip-path="url(#p7c481c12ba)" style="fill: none; stroke: #c8403d; stroke-opacity: 0.58; stroke-width: 0.9"/>
   </g>
   <g id="LineCollection_5">
    <path d="M 128.182453 176.94016 
L 168.618431 176.94016 
" clip-path="url(#p7c481c12ba)" style="fill: none; stroke: #2b6f8e; stroke-opacity: 0.58; stroke-width: 0.9"/>
   </g>
   <g id="LineCollection_6">
    <path d="M 128.182453 189.816547 
L 170.562468 189.816547 
" clip-path="url(#p7c481c12ba)" style="fill: none; stroke: #7a7f87; stroke-opacity: 0.58; stroke-width: 0.9"/>
   </g>
   <g id="patch_8">
    <path d="M 128.182453 196.89856 
L 180.733672 196.89856 
" style="fill: none; stroke: #000000; stroke-width: 0.55; stroke-linejoin: miter; stroke-linecap: square"/>
   </g>
   <g id="line2d_35">
    <g clip-path="url(#p7c481c12ba)">
     <use xlink:href="#mfbe7e6502f" x="163.175126" y="164.063773" style="fill: #c8403d; stroke: #c8403d"/>
    </g>
   </g>
   <g id="text_29">
    <text style="fill: #c8403d; font: 5.2px 'Arial', 'Helvetica', 'DejaVu Sans', sans-serif; text-anchor: middle" x="163.175126" y="160.197468" transform="rotate(-0 163.175126 160.197468)">18</text>
   </g>
   <g id="line2d_36">
    <g clip-path="url(#p7c481c12ba)">
     <use xlink:href="#mb953486289" x="168.618431" y="176.94016" style="fill: #2b6f8e; stroke: #2b6f8e"/>
    </g>
   </g>
   <g id="text_30">
    <text style="fill: #2b6f8e; font: 5.2px 'Arial', 'Helvetica', 'DejaVu Sans', sans-serif; text-anchor: middle" x="168.618431" y="173.073855" transform="rotate(-0 168.618431 173.073855)">20.8</text>
   </g>
   <g id="line2d_37">
    <g clip-path="url(#p7c481c12ba)">
     <use xlink:href="#m674ecba786" x="170.562468" y="189.816547" style="fill: #7a7f87; stroke: #7a7f87"/>
    </g>
   </g>
   <g id="text_31">
    <text style="fill: #7a7f87; font: 5.2px 'Arial', 'Helvetica', 'DejaVu Sans', sans-serif; text-anchor: middle" x="170.562468" y="185.950242" transform="rotate(-0 170.562468 185.950242)">21.8</text>
   </g>
   <g id="text_32">
    <text style="font: 6.3px 'Arial', 'Helvetica', 'DejaVu Sans', sans-serif" transform="translate(139.927211 148.226191)">Overshoot</text>
    <text style="font: 6.3px 'Arial', 'Helvetica', 'DejaVu Sans', sans-serif" transform="translate(149.55932 154.98176)">(%)</text>
   </g>
  </g>
  <g id="axes_4">
   <g id="patch_9">
    <path d="M 209.636843 196.89856 
L 262.188063 196.89856 
L 262.188063 156.98176 
L 209.636843 156.98176 
z
" style="fill: #ffffff"/>
   </g>
   <g id="matplotlib.axis_7">
    <g id="xtick_10">
     <g id="line2d_38">
      <path d="M 209.636843 196.89856 
L 209.636843 156.98176 
" clip-path="url(#pc5b6825142)" style="fill: none; stroke: #e2e2e2; stroke-width: 0.45; stroke-linecap: square"/>
     </g>
     <g id="line2d_39">
      <g>
       <use xlink:href="#mefa2552c77" x="209.636843" y="196.89856" style="stroke: #000000; stroke-width: 0.55"/>
      </g>
     </g>
     <g id="text_33">
      <text style="font: 5.8px 'Arial', 'Helvetica', 'DejaVu Sans', sans-serif; text-anchor: middle" x="209.636843" y="206.750091" transform="rotate(-0 209.636843 206.750091)">0</text>
     </g>
    </g>
    <g id="xtick_11">
     <g id="line2d_40">
      <path d="M 252.016859 196.89856 
L 252.016859 156.98176 
" clip-path="url(#pc5b6825142)" style="fill: none; stroke: #e2e2e2; stroke-width: 0.45; stroke-linecap: square"/>
     </g>
     <g id="line2d_41">
      <g>
       <use xlink:href="#mefa2552c77" x="252.016859" y="196.89856" style="stroke: #000000; stroke-width: 0.55"/>
      </g>
     </g>
     <g id="text_34">
      <text style="font: 5.8px 'Arial', 'Helvetica', 'DejaVu Sans', sans-serif; text-anchor: middle" x="252.016859" y="206.750091" transform="rotate(-0 252.016859 206.750091)">2.01</text>
     </g>
    </g>
   </g>
   <g id="matplotlib.axis_8">
    <g id="ytick_12">
     <g id="line2d_42"/>
    </g>
    <g id="ytick_13">
     <g id="line2d_43"/>
    </g>
    <g id="ytick_14">
     <g id="line2d_44"/>
    </g>
   </g>
   <g id="LineCollection_7">
    <path d="M 209.636843 164.063773 
L 225.239436 164.063773 
" clip-path="url(#pc5b6825142)" style="fill: none; stroke: #c8403d; stroke-opacity: 0.58; stroke-width: 0.9"/>
   </g>
   <g id="LineCollection_8">
    <path d="M 209.636843 176.94016 
L 247.589096 176.94016 
" clip-path="url(#pc5b6825142)" style="fill: none; stroke: #2b6f8e; stroke-opacity: 0.58; stroke-width: 0.9"/>
   </g>
   <g id="LineCollection_9">
    <path d="M 209.636843 189.816547 
L 252.016859 189.816547 
" clip-path="url(#pc5b6825142)" style="fill: none; stroke: #7a7f87; stroke-opacity: 0.58; stroke-width: 0.9"/>
   </g>
   <g id="patch_10">
    <path d="M 209.636843 196.89856 
L 262.188063 196.89856 
" style="fill: none; stroke: #000000; stroke-width: 0.55; stroke-linejoin: miter; stroke-linecap: square"/>
   </g>
   <g id="line2d_45">
    <g clip-path="url(#pc5b6825142)">
     <use xlink:href="#mfbe7e6502f" x="225.239436" y="164.063773" style="fill: #c8403d; stroke: #c8403d"/>
    </g>
   </g>
   <g id="text_35">
    <text style="fill: #c8403d; font: 5.2px 'Arial', 'Helvetica', 'DejaVu Sans', sans-serif; text-anchor: middle" x="225.239436" y="160.197468" transform="rotate(-0 225.239436 160.197468)">0.74</text>
   </g>
   <g id="line2d_46">
    <g clip-path="url(#pc5b6825142)">
     <use xlink:href="#mb953486289" x="247.589096" y="176.94016" style="fill: #2b6f8e; stroke: #2b6f8e"/>
    </g>
   </g>
   <g id="text_36">
    <text style="fill: #2b6f8e; font: 5.2px 'Arial', 'Helvetica', 'DejaVu Sans', sans-serif; text-anchor: middle" x="247.589096" y="173.073855" transform="rotate(-0 247.589096 173.073855)">1.8</text>
   </g>
   <g id="line2d_47">
    <g clip-path="url(#pc5b6825142)">
     <use xlink:href="#m674ecba786" x="252.016859" y="189.816547" style="fill: #7a7f87; stroke: #7a7f87"/>
    </g>
   </g>
   <g id="text_37">
    <text style="fill: #7a7f87; font: 5.2px 'Arial', 'Helvetica', 'DejaVu Sans', sans-serif; text-anchor: middle" x="252.016859" y="185.950242" transform="rotate(-0 252.016859 185.950242)">2.01</text>
   </g>
   <g id="text_38">
    <text style="font: 6.3px 'Arial', 'Helvetica', 'DejaVu Sans', sans-serif" transform="translate(218.228648 148.152363)">Steady-state</text>
    <text style="font: 6.3px 'Arial', 'Helvetica', 'DejaVu Sans', sans-serif" transform="translate(223.488656 154.98176)">error (%)</text>
   </g>
  </g>
 </g>
 <defs>
  <clipPath id="pc337ca256a">
   <rect x="46.728063" y="22.26256" width="215.46" height="99.792"/>
  </clipPath>
  <clipPath id="p43f9b1cd27">
   <rect x="46.728063" y="156.98176" width="52.55122" height="39.9168"/>
  </clipPath>
  <clipPath id="p7c481c12ba">
   <rect x="128.182453" y="156.98176" width="52.55122" height="39.9168"/>
  </clipPath>
  <clipPath id="pc5b6825142">
   <rect x="209.636843" y="156.98176" width="52.55122" height="39.9168"/>
  </clipPath>
 </defs>
</svg>
